<?xml version="1.0" encoding="UTF-8"?>
<svg width="24px" height="36px" viewBox="0 0 24 36" version="1.1" xmlns="http://www.w3.org/2000/svg" xmlns:xlink="http://www.w3.org/1999/xlink">
    <title>Modernization_Icon</title>
    <g id="Pixel_B2B_Website_FA_UPDATES" stroke="none" stroke-width="1" fill="none" fill-rule="evenodd">
        <g id="Homepage_D" transform="translate(-427.000000, -847.000000)" fill="#FFA300" fill-rule="nonzero">
            <g id="PILLAR_NAV" transform="translate(40.000000, 843.000000)">
                <g id="security_update_good_gm_grey_24dp" transform="translate(387.000000, 4.000000)">
                    <path d="M20.5714286,0.0163636364 L3.42857143,0 C1.54285714,0 0,1.47272727 0,3.27272727 L0,32.7272727 C0,34.5272727 1.54285714,36 3.42857143,36 L20.5714286,36 C22.4571429,36 24,34.5272727 24,32.7272727 L24,3.27272727 C24,1.47272727 22.4571429,0.0163636364 20.5714286,0.0163636364 Z M20.5714286,32.7272727 L3.42857143,32.7272727 L3.42857143,31.0909091 L20.5714286,31.0909091 L20.5714286,32.7272727 Z M20.5714286,27.8181818 L3.42857143,27.8181818 L3.42857143,8.18181818 L20.5714286,8.18181818 L20.5714286,27.8181818 Z M3.42857143,4.90909091 L3.42857143,3.27272727 L20.5714286,3.27272727 L20.5714286,4.90909091 L3.42857143,4.90909091 Z M10.5257143,24.5454545 L3.94285714,18.2618182 L6.36,15.9381818 L10.5257143,19.8981818 L17.6571429,13.0909091 L20.0914286,15.3981818 L10.5257143,24.5454545 Z" id="Shape"></path>
                </g>
            </g>
        </g>
    </g>
</svg>