<?xml version="1.0" encoding="UTF-8"?>
<svg width="30px" height="37px" viewBox="0 0 30 37" version="1.1" xmlns="http://www.w3.org/2000/svg" xmlns:xlink="http://www.w3.org/1999/xlink">
    <title>Security_Icon</title>
    <g id="Pixel_B2B_Website_FA_UPDATES" stroke="none" stroke-width="1" fill="none" fill-rule="evenodd">
        <g id="Homepage_D" transform="translate(-999.000000, -847.000000)" fill-rule="nonzero">
            <g id="PILLAR_NAV" transform="translate(40.000000, 843.000000)">
                <g id="Security_Icon" transform="translate(959.000000, 4.000000)">
                    <path d="M15,37 C24.7950036,32.4613333 28.2921842,24.2452778 29.1864026,18.3088333 C29.376838,17.0549444 29.5,15.0939444 29.5,14.2953611 L29.5,4.30947222 L15,0 L0.5,4.30947222 L0.5,14.2953611 C0.5,15.0939444 0.624197002,17.0559722 0.81359743,18.3088333 C1.70781585,24.2452778 5.20499643,32.4613333 15,37 Z" id="Path" fill="#1A73E8"></path>
                    <g id="lock_gm_grey_24dp" transform="translate(7.000000, 6.000000)">
                        <path d="M14,7 L13,7 L13,5 C13,2.24 10.76,0 8,0 C5.24,0 3,2.24 3,5 L3,7 L2,7 C0.9,7 0,7.9 0,9 L0,17.1310806 C0,18.2310806 0.9,19.1310806 2,19.1310806 L14,19.1310806 C15.1,19.1310806 16,18.2310806 16,17.1310806 L16,9 C16,7.9 15.1,7 14,7 Z M5,5 C5,3.34 6.34,2 8,2 C9.66,2 11,3.34 11,5 L11,7 L5,7 L5,5 Z M8,16 C9.1,16 10,15.1 10,14 C10,12.9 9.1,12 8,12 C6.9,12 6,12.9 6,14 C6,15.1 6.9,16 8,16 Z" id="Shape" fill="#FFFFFF"></path>
                        <path d="M7.959,10.167 C6.866,10.167 5.95,11.0681813 5.95,12.1820009 C5.95,12.9267975 6.22,13.5770881 6.91,13.9247349 L6.91,16.167 L8.984,16.167 L8.984,13.9247349 C9.674,13.5759631 9.95,12.9267975 9.95,12.1820009 C9.95,11.0681813 9.051,10.167 7.959,10.167 Z" id="Path" fill="#185ABC"></path>
                    </g>
                </g>
            </g>
        </g>
    </g>
</svg>