<?xml version="1.0" encoding="UTF-8"?>
<svg width="31px" height="29px" viewBox="0 0 31 29" version="1.1" xmlns="http://www.w3.org/2000/svg" xmlns:xlink="http://www.w3.org/1999/xlink">
    <title>Affordability_Icon</title>
    <g id="Pixel_B2B_Website_FA_UPDATES" stroke="none" stroke-width="1" fill="none" fill-rule="evenodd">
        <g id="Homepage_D" transform="translate(-1277.000000, -849.000000)" fill="#EA4335" fill-rule="nonzero">
            <g id="PILLAR_NAV" transform="translate(40.000000, 843.000000)">
                <g id="Affordability_Icon" transform="translate(1237.000000, 6.000000)">
                    <path d="M19,11.5 C19,10.675 19.675,10 20.5,10 C21.325,10 22,10.675 22,11.5 C22,12.325 21.325,13 20.5,13 C19.675,13 19,12.325 19,11.5 Z M9,11 L17,11 L17,8 L9,8 L9,11 Z M31,8.39473684 L31,19.0331579 L26.629,20.4678947 L24.025,29 L15.5,29 L15.5,25.9473684 L12.4,25.9473684 L12.4,29 L3.875,29 C3.875,29 0,16.0873684 0,11.4473684 C0,6.80736842 3.813,3.05263158 8.525,3.05263158 L16.275,3.05263158 C17.6855,1.20578947 19.933,0 22.475,0 C23.7615,0 24.8,1.02263158 24.8,2.28947368 C24.8,2.61 24.738,2.9 24.614,3.17473684 C24.397,3.69368421 24.211,4.28894737 24.118,4.93 L27.6365,8.39473684 L31,8.39473684 Z M28,11.3454058 L26.4375,11.3454058 L20.96875,5.94634474 C20.96875,4.94366197 21.109375,3.9564051 21.375,3 C19.859375,3.38564722 18.625,4.4963112 18.109375,5.94634474 L8.46875,5.94634474 C5.453125,5.94634474 3,8.36820926 3,11.3454058 C3,14.2454728 4.90625,21.6036217 6.140625,26 L9.25,26 L9.25,22.9148223 L18.625,22.9148223 L18.625,26 L21.765625,26 L24.1875,18.0556673 L28,16.7907445 L28,11.3454058 Z" id="Shape"></path>
                </g>
            </g>
        </g>
    </g>
</svg>